<?xml version="1.0" encoding="UTF-8"?>
<svg id="Layer_2" data-name="Layer 2" xmlns="http://www.w3.org/2000/svg" viewBox="0 0 51.02 51.02">
  <defs>
    <style>
      .cls-1 {
        fill: #00af66;
      }

      .cls-2 {
        fill: none;
      }
    </style>
  </defs>
  <g id="Layer_2-2" data-name="Layer 2">
    <rect class="cls-2" width="51.02" height="51.02"/>
    <g id="Group_443" data-name="Group 443">
      <path id="Path_273" data-name="Path 273" class="cls-1" d="m20.14,43.83c0,.74.6,1.34,1.34,1.34s1.34-.6,1.34-1.34c0-.74-.6-1.34-1.34-1.34s-1.34.6-1.34,1.34h0Z"/>
      <path id="Path_277" data-name="Path 277" class="cls-1" d="m13.2,37c-.51-1.15-.86-2.36-1.03-3.6v-.03s-1.78.16-1.78.16v.03c.03.31.74,7.74,7.33,10.23h.03s.63-1.66.63-1.66h-.03c-2.84-1.1-4.36-3.39-5.14-5.13Z"/>
      <path id="Path_271" data-name="Path 271" class="cls-1" d="m22.1,47.28c-7.74,0-14.02-6.28-14.04-14.02.02-2.19.54-4.35,1.52-6.31L22.13,5.27l.03.05,10.58,18.4c.45-.05.91-.08,1.37-.08.13,0,.25,0,.37,0L22.1,2.22l-12.78,22.18-1.07,1.83c-1.1,2.18-1.69,4.58-1.71,7.02.01,8.59,6.97,15.54,15.56,15.55h.05c2.65,0,5.25-.68,7.56-1.97-.6-.24-1.19-.53-1.74-.86-1.84.85-3.84,1.3-5.87,1.3Z"/>
      <g id="Group_442" data-name="Group 442">
        <g id="Group_441" data-name="Group 441">
          <path id="Path_274" data-name="Path 274" class="cls-1" d="m38.65,35.63c.34,1.88-.59,3.76-2.29,4.64l.23-1.24-1.07-.2-.56,3.03,3.03.56.2-1.07-1.14-.21c2.01-1.14,3.09-3.43,2.67-5.71l-1.08.21Z"/>
          <path id="Path_276" data-name="Path 276" class="cls-1" d="m35.2,33.13l2.9-1.03-1.02-2.89-1.02.36.39,1.09c-1.99-1.18-4.51-.96-6.27.54l.71.83c1.46-1.23,3.55-1.37,5.16-.34l-1.19.42.36,1.02Z"/>
          <path id="Path_278" data-name="Path 278" class="cls-1" d="m28.94,35.98l.92.88.75-.79-2.22-2.12-2.12,2.22.79.75.8-.84c-.15,2.31,1.19,4.46,3.32,5.35l.42-1c-1.76-.74-2.83-2.55-2.64-4.45Z"/>
        </g>
        <path id="Path_275" data-name="Path 275" class="cls-1" d="m43.63,31.5c-2.31-5.49-8.63-8.07-14.11-5.76-5.49,2.31-8.07,8.63-5.76,14.11,2.31,5.49,8.63,8.07,14.11,5.76,4-1.68,6.6-5.6,6.6-9.94,0-1.43-.29-2.85-.84-4.18Zm-9.88,13.31c-5.04,0-9.13-4.09-9.13-9.13s4.09-9.13,9.13-9.13,9.13,4.09,9.13,9.13h0c0,5.04-4.09,9.13-9.13,9.13h0Z"/>
      </g>
    </g>
  </g>
</svg>