<?xml version="1.0" encoding="UTF-8"?>
<svg id="Layer_2" data-name="Layer 2" xmlns="http://www.w3.org/2000/svg" viewBox="0 0 146.32 146.32">
  <defs>
    <style>
      .cls-1 {
        fill: #184225;
      }

      .cls-2 {
        fill: none;
      }
    </style>
  </defs>
  <g id="Layer_1-2" data-name="Layer 1">
    <g>
      <path class="cls-1" d="m44.29,24.16c0,11.23-9.1,20.33-20.33,20.33S3.63,35.39,3.63,24.16,12.73,3.83,23.96,3.83s20.33,9.1,20.33,20.33"/>
      <path class="cls-1" d="m44.29,73.51c0,11.23-9.1,20.33-20.33,20.33S3.63,84.74,3.63,73.51s9.1-20.33,20.33-20.33,20.33,9.1,20.33,20.33"/>
      <path class="cls-1" d="m44.29,122.86c0,11.23-9.1,20.33-20.33,20.33s-20.33-9.1-20.33-20.33,9.1-20.33,20.33-20.33,20.33,9.1,20.33,20.33"/>
      <path class="cls-1" d="m73.31,3.83c11.23,0,20.33,9.1,20.33,20.33s-9.1,20.33-20.33,20.33-20.33-9.1-20.33-20.33S62.08,3.83,73.31,3.83"/>
      <path class="cls-1" d="m122.65,3.83c-11.23,0-20.33,9.1-20.33,20.33s9.1,20.33,20.33,20.33,20.33-9.1,20.33-20.33-9.1-20.33-20.33-20.33m0,.46c10.96,0,19.87,8.91,19.87,19.87s-8.91,19.87-19.87,19.87-19.87-8.91-19.87-19.87,8.91-19.87,19.87-19.87"/>
      <path class="cls-1" d="m73.31,53.18c11.23,0,20.33,9.1,20.33,20.33s-9.1,20.33-20.33,20.33-20.33-9.1-20.33-20.33,9.1-20.33,20.33-20.33"/>
      <path class="cls-1" d="m122.65,53.18c11.23,0,20.33,9.1,20.33,20.33s-9.1,20.33-20.33,20.33-20.33-9.1-20.33-20.33,9.1-20.33,20.33-20.33"/>
      <path class="cls-1" d="m73.31,102.53c-11.23,0-20.33,9.1-20.33,20.33s9.1,20.33,20.33,20.33,20.33-9.1,20.33-20.33-9.1-20.33-20.33-20.33m0,.46c10.96,0,19.87,8.91,19.87,19.87s-8.91,19.87-19.87,19.87-19.87-8.91-19.87-19.87,8.91-19.87,19.87-19.87"/>
      <path class="cls-1" d="m122.65,102.53c11.23,0,20.33,9.1,20.33,20.33s-9.1,20.33-20.33,20.33-20.33-9.1-20.33-20.33,9.1-20.33,20.33-20.33"/>
    </g>
    <rect class="cls-2" width="146.32" height="146.32"/>
  </g>
</svg>