<?xml version="1.0" encoding="UTF-8"?>
<svg id="Layer_2" data-name="Layer 2" xmlns="http://www.w3.org/2000/svg" viewBox="0 0 51.02 51.02">
  <defs>
    <style>
      .cls-1 {
        fill: #00af66;
      }

      .cls-2 {
        fill: none;
      }
    </style>
  </defs>
  <g id="Layer_2-2" data-name="Layer 2">
    <rect class="cls-2" width="51.02" height="51.02"/>
    <path id="Fire_prevention" data-name="Fire prevention" class="cls-1" d="m32.49,34.61c-.05-.05-.15-.14-.28-.26-.18-.16-.39-.35-.53-.48l-.81-.79.28,1.09c.07.3.11.62.1.93v.02c.04.88-.26,1.75-.83,2.42-.35-3.14-1.87-6.01-4.73-8.99-.2-.21-1.25-1.3-1.25-1.3l-.5-.53-.04.73c-.03.47-.08,1.39-.09,1.54-.14,1.68-.88,3.24-2.09,4.42l-1.7,1.66c-1.62,1.57-2.54,3.73-2.54,5.99.11,4.78,4.07,8.57,8.85,8.46,4.63-.11,8.35-3.83,8.46-8.46,0-3.79-1.61-5.77-2.3-6.45h0Zm-6.35,13.48c-3.93.04-7.15-3.1-7.21-7.03,0-1.88.76-3.67,2.11-4.97l1.7-1.66c1.22-1.18,2.05-2.7,2.38-4.37,2.67,2.94,3.93,5.78,3.93,8.89,0,.25.14.49.36.61.22.13.49.13.72,0,1.07-.56,1.89-1.5,2.29-2.64.63,1.28.95,2.7.93,4.13-.05,3.93-3.27,7.08-7.2,7.03h0Zm-3.43-43.36c0-1.78,1.45-3.23,3.23-3.23s3.23,1.45,3.23,3.23c0,1.78-1.45,3.23-3.23,3.23-1.78,0-3.23-1.45-3.23-3.23h0Zm-2.27,8.2c.01-1.02.85-1.84,1.87-1.83,1.01.02,1.81.86,1.79,1.87-.02,1.01-.86,1.81-1.87,1.79-1-.02-1.79-.84-1.79-1.83Zm8.22-1.83c1.01.02,1.81.86,1.79,1.87-.02,1.01-.86,1.81-1.87,1.79-1-.02-1.79-.84-1.79-1.83.03-1.02.86-1.82,1.88-1.83h0Zm-11.41,6.82c.01-1.02.85-1.84,1.87-1.83,1.01-.03,1.85.77,1.88,1.78s-.77,1.85-1.78,1.88c-.03,0-.06,0-.1,0-1.02,0-1.85-.81-1.87-1.83h0Zm6.39,0c.01-1.02.85-1.84,1.87-1.83,1.01-.03,1.85.77,1.88,1.78s-.77,1.85-1.78,1.88c-.03,0-.06,0-.1,0-1.02,0-1.85-.81-1.87-1.83h0Zm6.39,0c0-1.01.82-1.83,1.83-1.83.01,0,.03,0,.04,0,1.02,0,1.86.81,1.87,1.83-.03,1.03-.89,1.85-1.92,1.82-1-.03-1.8-.83-1.82-1.82Zm-12.3,4.99c-.03,1.01-.86,1.82-1.87,1.83-1.02,0-1.86-.81-1.87-1.83.03-1.03.89-1.85,1.92-1.82,1,.03,1.8.83,1.82,1.82Zm6.44,0c-.03,1.01-.86,1.82-1.87,1.83-1.02,0-1.86-.81-1.87-1.83.02-1.03.87-1.86,1.9-1.84,1.01.02,1.83.83,1.84,1.84Zm2.69,0c0-1.01.82-1.83,1.83-1.83.01,0,.03,0,.04,0,1.02,0,1.86.81,1.87,1.83-.03,1.03-.89,1.85-1.92,1.82-1-.03-1.8-.83-1.82-1.82Zm10.18,0c-.01,1.02-.85,1.84-1.87,1.83-1.01,0-1.84-.82-1.87-1.83.02-1.03.87-1.86,1.9-1.84,1.01.02,1.83.83,1.84,1.84Z"/>
  </g>
</svg>