<?xml version="1.0" encoding="UTF-8"?>
<svg id="Layer_2" data-name="Layer 2" xmlns="http://www.w3.org/2000/svg" viewBox="0 0 51.02 51.02">
  <defs>
    <style>
      .cls-1 {
        fill: #00af66;
      }

      .cls-2 {
        fill: none;
      }
    </style>
  </defs>
  <g id="Layer_2-2" data-name="Layer 2">
    <rect class="cls-2" width="51.02" height="51.02"/>
    <path id="Security" class="cls-1" d="m15.53,22.56c1.31,0,2.37,1.06,2.37,2.37s-1.06,2.37-2.37,2.37c-1.31,0-2.37-1.06-2.37-2.37,0-1.31,1.06-2.37,2.37-2.37Zm-4.86,22.06V6.4c0-1.06.86-1.93,1.93-1.93h19.88c1.06,0,1.93.86,1.93,1.93v19.24h2.26V6.4c0-2.31-1.88-4.18-4.19-4.19H12.6c-2.31,0-4.18,1.87-4.19,4.19v38.21c0,2.31,1.88,4.18,4.19,4.19h11.62v-2.26h-11.62c-1.06,0-1.93-.86-1.93-1.93h0Zm31.93-6.11v9.17c0,.62-.51,1.13-1.13,1.13h-12.23c-.62,0-1.13-.51-1.13-1.13v-9.17c0-.62.51-1.13,1.13-1.13h.4v-3.46c0-2.31,1.88-4.19,4.19-4.19h3.06c2.31,0,4.19,1.88,4.19,4.19v3.46h.4c.62,0,1.13.51,1.13,1.13h0Zm-10.7-1.13h6.91v-3.46c0-1.06-.86-1.93-1.93-1.93h-3.06c-1.06,0-1.93.86-1.93,1.93v3.46Zm8.44,2.26h-9.97v6.91h9.97v-6.91Z"/>
  </g>
</svg>