<?xml version="1.0" encoding="UTF-8"?>
<svg id="Layer_2" data-name="Layer 2" xmlns="http://www.w3.org/2000/svg" viewBox="0 0 485.2 105.47">
  <defs>
    <style>
      .cls-1 {
        fill: #fff;
      }
      .cls-2 {
        fill: #fff;
      }
    </style>
  </defs>
  <g id="Layer_1-2" data-name="Layer 1">
    <path id="a" class="cls-1" d="m39.38,84.78c9.02,0,16.57-7.43,16.57-17.24s-7.56-17.9-17.37-17.9-17.63,8.09-17.63,17.63,7.69,17.5,18.43,17.5m16.44,10.61c-6.23,6.1-12.6,8.35-21.08,8.35s-16.04-2.78-22.27-8.35C4.24,88.09,0,78.54,0,67.41c0-10.21,3.98-19.36,11.4-26.52,6.63-6.5,14.72-9.81,23.73-9.81s15.25,2.92,20.02,9.02v-7.96h20.95v71.2h-20.29v-7.96Z"/>
    <path id="n" class="cls-1" d="m135.09,103.43v-40.48c0-3.39-.12-8.6-4.12-12.48-2.42-2.3-6.3-3.88-9.93-3.88s-7.39,1.45-9.69,3.51c-4.85,4.24-4.72,10.17-4.72,14.66v38.66h-20.96v-39.03c0-8.48.36-17.32,9.08-26.17,6.78-6.9,15.26-10.05,26.65-10.05,12.72,0,21.8,4.36,26.77,9.69,7.02,7.63,7.87,17.93,7.87,26.53v39.03h-20.96Z"/>
    <path id="d" class="cls-1" d="m205.11,84.06c9.38,0,17.25-7.73,17.25-17.94s-7.87-18.63-18.08-18.63-18.35,8.42-18.35,18.35,8,18.22,19.18,18.22m17.11,11.04c-6.49,6.35-13.11,8.69-21.94,8.69s-16.7-2.9-23.18-8.69c-8.56-7.59-12.97-17.53-12.97-29.12,0-10.63,4.14-20.15,11.87-27.6,6.9-6.76,15.32-10.21,24.7-10.21s15.87,3.04,20.84,9.38V5.26h21.8v98.11h-21.11v-8.28Z"/>
    <polygon id="w" class="cls-1" points="356.96 29.53 324.65 105.47 301.69 57.91 280.69 105.47 248.06 29.53 270.36 29.53 283.65 59.88 293.65 37.74 289.88 29.53 309.39 29.53 322.84 61.19 334.65 29.53 356.96 29.53"/>
    <rect id="i" class="cls-1" x="362.49" y="29.37" width="22.67" height="73.98"/>
    <path id="iDot" class="cls-1" d="m386.72,12.89c0,7.12-5.77,12.89-12.89,12.89s-12.89-5.77-12.89-12.89,5.77-12.89,12.89-12.89,12.89,5.77,12.89,12.89"/>
    <path id="s" class="cls-1" d="m414.86,81.3v.67c0,4.04,3.23,6.86,7.81,6.86s7.27-2.29,7.27-6.32c0-5.92-5.79-5.65-14.8-8.48-12.52-3.9-18.57-10.63-18.57-21.53,0-14.13,10.36-24.09,27.59-24.09,14.94,0,24.49,8.48,25.3,22.21h-19.25c-.81-4.71-2.56-6.73-6.33-6.73-4.17,0-6.59,2.42-6.59,5.92,0,4.98,4.44,6.19,11.84,8.21,14.8,4.04,22.21,9.69,22.21,21.67,0,14.54-11.44,25.03-28.94,25.03-16.15,0-26.11-8.75-27.59-23.42h20.05Z"/>
    <path id="dot" class="cls-2" d="m485.2,90.83c0,7.12-5.77,12.89-12.89,12.89s-12.89-5.77-12.89-12.89,5.77-12.89,12.89-12.89,12.89,5.77,12.89,12.89"/>
  </g>
</svg>