<?xml version="1.0" encoding="UTF-8"?>
<svg id="Layer_2" data-name="Layer 2" xmlns="http://www.w3.org/2000/svg" viewBox="0 0 485.2 105.47">
  <defs>
    <style>
      .cls-1 {
        fill: #fff;
      }

      .cls-2 {
        fill: none;
      }
    </style>
  </defs>
  <g id="Layer_1-2" data-name="Layer 1">
    <path class="cls-1" d="m205.11,84.06c9.38,0,17.25-7.73,17.25-17.94s-7.87-18.63-18.08-18.63-18.35,8.42-18.35,18.35,8,18.22,19.18,18.22m17.11,11.04c-6.49,6.35-13.11,8.69-21.94,8.69s-16.7-2.9-23.18-8.69c-8.56-7.59-12.97-17.53-12.97-29.12,0-10.63,4.14-20.15,11.87-27.6,6.9-6.76,15.32-10.21,24.7-10.21s15.87,3.04,20.84,9.38V5.26h21.8v98.11h-21.11v-8.28Z"/>
    <rect class="cls-2" width="485.2" height="105.47"/>
  </g>
</svg>