<?xml version="1.0" encoding="UTF-8"?>
<svg id="Layer_2" data-name="Layer 2" xmlns="http://www.w3.org/2000/svg" viewBox="0 0 485.2 105.47">
  <defs>
    <style>
      .cls-1 {
        fill: #fff;
      }

      .cls-2 {
        fill: none;
      }
    </style>
  </defs>
  <g id="Layer_1-2" data-name="Layer 1">
    <path class="cls-1" d="m414.86,81.3v.67c0,4.04,3.23,6.86,7.81,6.86s7.27-2.29,7.27-6.32c0-5.92-5.79-5.65-14.8-8.48-12.52-3.9-18.57-10.63-18.57-21.53,0-14.13,10.36-24.09,27.59-24.09,14.94,0,24.49,8.48,25.3,22.21h-19.25c-.81-4.71-2.56-6.73-6.33-6.73-4.17,0-6.59,2.42-6.59,5.92,0,4.98,4.44,6.19,11.84,8.21,14.8,4.04,22.21,9.69,22.21,21.67,0,14.54-11.44,25.03-28.94,25.03-16.15,0-26.11-8.75-27.59-23.42h20.05Z"/>
    <rect class="cls-2" width="485.2" height="105.47"/>
  </g>
</svg>